<svg
  xmlns="http://www.w3.org/2000/svg"
  viewBox="200 120 650 800"
  width="64"
  height="64"
  aria-hidden="true"
>
  <path
    fill="#131817"
    d="M376.336 158.781C376.196 155.636 372.359 114.662 388.051 128.354C391.131 131.041 392.882 160.515 393.117 167.362C403.924 178.333 403.794 193.547 395.384 205.899C393.935 208.027 392.449 210.08 391.089 212.27C391.532 215.704 392.217 219.361 392.898 222.75C401.329 264.685 411.358 306.611 429.737 345.467C439.431 365.959 449.365 381.001 468.406 393.838C470.171 388.404 471.397 384.842 473.657 379.605C463.084 374.359 451.17 361.948 448.958 350.215C444.098 324.424 456.264 290.487 469.591 268.322C464.082 258.828 460.156 251.645 465.53 240.842L471.328 245.092C473.701 230.042 473.123 217.677 487.159 207.944C490.326 212.699 493.889 217.746 498.55 221.187C507.519 227.896 519.162 228.008 529.642 230.619C559.178 237.979 576.983 251.633 583.247 281.581C604.597 302.755 603.942 331.101 583.185 352.456C589.442 365.158 579.839 375.442 569.247 381.758C561.224 386.543 554.813 384.36 546.661 381.744C540.514 385.302 532.32 388.912 525.388 390.481C523.945 394.915 522.298 399.374 521.428 403.976C520.534 408.702 524.97 409.059 528.182 409.873C532.757 411.033 536.874 410.909 541.492 411.321C578.511 418.876 610.025 456.352 629.68 486.855C665.935 543.119 686.116 610.017 744.25 649.697C756.597 658.124 772.057 665.262 786.802 668.222C796.832 670.216 807.126 670.509 817.253 669.088C805.494 693.846 784.05 711.674 758.357 720.923C750.629 723.705 732.645 727.565 724.622 726.793C722.177 726.206 712.911 725.55 709.534 725.068C705.433 724.482 697.398 722.651 693.949 722.454C680.278 716.961 668.328 715.056 654.097 720.074C645.618 721.945 640.756 725.587 633.817 730.512C611.99 746.002 582.912 731.4 563.851 718.412C556.93 713.697 550.996 708.714 544.399 704.691L543.816 704.338C549.9 725.566 555.352 746.971 560.164 768.523C563.364 782.54 565.369 797.566 570.061 811.31C573.83 822.347 612.623 852.342 592.515 864.108C572.735 875.681 545.941 867.453 533.609 847.886C532.932 837.057 535.321 826.198 534.351 817.168C533.633 810.477 526.132 793.516 523.118 786.482C512.385 761.44 501.308 735.86 488.194 711.988L479.805 714.475C475.163 706.304 470.56 698.82 466.161 690.428C461.192 680.948 456.339 670.283 450.6 661.378C447.922 678.674 446.098 693.561 443.899 710.86C441.322 711.36 438.448 711.734 435.825 712.133C432.964 742.711 432.802 775.409 433.083 806.081C433.189 817.636 453.063 850.106 430.577 853.32C414.725 855.585 397.574 859.723 381.801 860.763C375.192 861.246 368.552 861.096 361.972 860.312C352.365 859.096 341.176 856.148 344.133 844C346.51 834.236 364.28 829.44 372.026 824.244C380.456 818.588 387.424 812.144 395.626 806.638C394.821 794.592 392.506 779.37 390.979 767.167L383.408 705.479C380.422 704.043 376.275 702.326 373.992 700.1C372.477 696.164 372.769 684.543 372.753 679.62C372.474 650.218 373.928 620.825 377.108 591.594L372.944 587.767C372.838 569.772 376.857 536.287 379.711 518.11C382.03 503.312 384.726 488.576 387.794 473.915C391.028 458.151 397.123 439.733 390.352 424.394C382.992 407.719 374.913 391.185 367.684 374.465C370.876 371.925 374.841 369.335 378.241 366.996C365.807 329.909 358.021 302.611 354.913 263.203C354.272 254.795 353.966 246.365 353.996 237.933C353.984 233.52 354.199 222.177 353.424 218.5C351.044 207.212 342.684 202.576 342.149 189.271C341.847 181.808 344.565 174.538 349.689 169.103C357.31 160.977 365.782 159.159 376.336 158.781Z"
  />
  <path
    fill="#DC2F2C"
    d="M541.492 411.321C578.511 418.876 610.025 456.352 629.68 486.855C665.935 543.119 686.116 610.017 744.25 649.697C756.597 658.124 772.057 665.262 786.802 668.222C796.832 670.216 807.126 670.509 817.253 669.088C805.494 693.846 784.05 711.674 758.357 720.923C750.629 723.705 732.645 727.565 724.622 726.793C722.177 726.206 712.911 725.55 709.534 725.068C705.433 724.482 697.398 722.651 693.949 722.454C680.278 716.961 668.328 715.056 654.097 720.074C645.618 721.945 640.756 725.587 633.817 730.512C611.99 746.002 582.912 731.4 563.851 718.412C556.93 713.697 550.996 708.714 544.399 704.691L543.816 704.338L542.181 699.571L547.659 696.046C542.65 672.376 538.69 648.294 534.744 624.406C534.458 622.675 534.019 621.225 534.874 620.112L537.971 619.93C538.244 619.757 538.517 619.584 538.79 619.412C539.016 616.874 538.736 609.849 538.678 607.62C538.221 583.75 539.226 559.874 541.687 536.126C542.459 529.046 543.552 518.774 545.327 511.989C551.686 517.53 559.788 528.951 564.896 535.873L573.424 531.554C585.147 550.226 593.84 566.038 601.002 587.061C603.334 593.905 604.62 601.01 606.918 607.998C600.122 616.148 589.708 629.865 592.978 641.815C594.192 646.256 599.193 645.001 600.584 646.612C603.226 649.671 604.735 654.568 609.385 656.009C620.567 660.487 637.402 650.716 640.842 639.615C644.357 627.048 639.069 614.733 636.477 602.606C635.425 597.686 635.082 592.273 634.265 587.292C633.357 581.747 632.641 576.188 631.679 570.653C627.976 550.306 621.39 530.592 612.121 512.104L617.536 506.931C604.122 485.878 584.566 446.311 565.041 432.856C547.158 420.533 531.702 428.318 512.372 431.767C520.232 425.716 534.634 417.345 541.492 411.321Z"
  />
  <path
    fill="#FCFBF9"
    d="M509.236 456.027C518.392 455.48 526.552 467.863 519.736 474.638C499.104 495.14 475.822 512.904 454.869 533.139C450.933 536.454 447.549 537.292 444.157 532.668C438.954 525.578 434.473 517.455 429.972 509.883C426.342 503.907 415.721 487.545 418.087 483.259C427.473 466.259 439.215 472.097 446.01 486.633C447.761 490.379 452.675 497.711 454.178 500.122C466.737 488.767 480.174 478.043 493.29 467.336C498.053 463.448 503.751 458.695 509.236 456.027Z"
  />
  <path
    fill="#131817"
    d="M340.42 278.51C341.111 279.588 344.503 304.688 345.093 308.192C310.697 331.607 282.317 362.814 262.262 399.271C228.837 460.332 220.876 532.122 240.112 599.023C261.425 672.962 309.134 728.295 375.877 765.214C376.722 775.642 378.036 786.732 379.157 797.168C373.669 794.807 368.958 792.397 363.644 789.678C313.037 763.263 271.024 722.948 242.545 673.473C203.663 605.631 193.119 525.188 213.202 449.618C226.834 398.595 254.492 352.664 292.369 316.089C306.375 302.565 323.574 288.243 340.42 278.51Z"
  />
  <path
    fill="#131817"
    d="M582.212 243.811C592.465 245.556 614.928 254.139 624.459 258.292C695.905 290.27 751.969 348.982 780.62 421.826C809.642 495.834 805.785 575.343 774.132 647.711C773.631 648.891 773.738 648.988 772.67 649.62C766.093 646.612 755.921 640.617 749.577 636.748C751.399 632.574 753.147 628.367 754.819 624.131C780.663 558.365 779.139 484.996 750.588 420.359C720.229 351.695 664.477 302.591 595.034 275.633C595.219 264.238 588.102 253.562 582.212 243.811Z"
  />
  <path
    fill="#131817"
    d="M693.949 722.454C697.398 722.651 705.433 724.482 709.534 725.068C712.911 725.55 722.177 726.206 724.622 726.793C698.51 767.594 633.69 800.582 588.509 814.418C580.977 803.577 581.801 802.121 579.223 789.284C587.595 785.974 596.238 783.363 604.926 779.774C639.314 765.573 667.505 748.607 693.949 722.454Z"
  />
  <path
    fill="#131817"
    d="M447.026 791.486C470.393 796.394 488.993 798.136 512.833 797.922C515.055 805.648 518.587 816.983 520.077 824.825C496.659 825.759 474.418 825.057 451.361 820.436C446.841 807.878 446.82 804.326 447.026 791.486Z"
  />
  <path
    fill="#131817"
    d="M450.261 237.658C450.996 237.486 450.549 237.517 451.597 237.812C451.663 240.505 450.524 243.444 449.98 246.193C448.662 252.86 449.597 258.816 450.895 265.357C445.539 266.622 423.952 273.436 420.603 273.355C418.658 264.34 416.848 255.297 415.175 246.228C426.683 242.653 438.401 239.791 450.261 237.658Z"
  />
</svg>
